<svg xmlns="http://www.w3.org/2000/svg" width="1200" height="780" viewBox="0 0 1200 780" fill="none">
  <defs>
    <linearGradient id="bg" x1="0" y1="0" x2="1200" y2="780" gradientUnits="userSpaceOnUse">
      <stop stop-color="#171B2A"/>
      <stop offset="1" stop-color="#121625"/>
    </linearGradient>
  </defs>
  <rect width="1200" height="780" rx="20" fill="url(#bg)"/>
  <rect x="34" y="34" width="1132" height="136" rx="14" fill="#1C2336" stroke="#2B3551"/>
  <rect x="34" y="192" width="1132" height="96" rx="14" fill="#1C2336" stroke="#2B3551"/>
  <rect x="34" y="334" width="780" height="56" rx="12" fill="#161D2D" stroke="#5984D8"/>
  <rect x="34" y="450" width="550" height="142" rx="14" fill="#1B2235" stroke="#2B3551"/>
  <rect x="616" y="450" width="550" height="142" rx="14" fill="#1B2235" stroke="#2B3551"/>
  <rect x="34" y="612" width="550" height="142" rx="14" fill="#1B2235" stroke="#2B3551"/>
  <rect x="616" y="612" width="550" height="142" rx="14" fill="#1B2235" stroke="#2B3551"/>
  <rect x="52" y="478" width="280" height="24" rx="12" fill="#D6DCEC" fill-opacity="0.35"/>
  <rect x="52" y="516" width="360" height="18" rx="9" fill="#D6DCEC" fill-opacity="0.22"/>
  <rect x="634" y="478" width="240" height="24" rx="12" fill="#D6DCEC" fill-opacity="0.35"/>
  <rect x="634" y="516" width="330" height="18" rx="9" fill="#D6DCEC" fill-opacity="0.22"/>
  <rect x="52" y="640" width="290" height="24" rx="12" fill="#D6DCEC" fill-opacity="0.35"/>
  <rect x="52" y="678" width="330" height="18" rx="9" fill="#D6DCEC" fill-opacity="0.22"/>
  <rect x="634" y="640" width="210" height="24" rx="12" fill="#D6DCEC" fill-opacity="0.35"/>
  <rect x="634" y="678" width="350" height="18" rx="9" fill="#D6DCEC" fill-opacity="0.22"/>
  <rect x="492" y="470" width="76" height="40" rx="20" fill="#6E8FC7"/>
  <circle cx="544" cy="490" r="16" fill="#F6F8FF"/>
  <rect x="1074" y="470" width="76" height="40" rx="20" fill="#C7CBD7" fill-opacity="0.5"/>
  <circle cx="1098" cy="490" r="16" fill="#F6F8FF"/>
</svg>
