<svg xmlns="http://www.w3.org/2000/svg" viewBox="0 0 1280 720" fill="none">
  <defs>
    <linearGradient id="bg" x1="0" y1="0" x2="1" y2="1">
      <stop offset="0%" stop-color="#111527"/>
      <stop offset="100%" stop-color="#0b0f1e"/>
    </linearGradient>
    <pattern id="grid" width="28" height="28" patternUnits="userSpaceOnUse">
      <path d="M28 0H0V28" stroke="#1b223b" stroke-width="1"/>
    </pattern>
  </defs>

  <rect width="1280" height="720" rx="20" fill="url(#bg)"/>
  <rect width="1280" height="720" rx="20" fill="url(#grid)" opacity="0.6"/>

  <rect x="70" y="120" width="340" height="480" rx="14" fill="#141b31" stroke="#243154"/>
  <rect x="440" y="120" width="770" height="480" rx="14" fill="#10172a" stroke="#243154"/>

  <rect x="96" y="158" width="220" height="14" rx="7" fill="#6f89d9" opacity="0.35"/>
  <rect x="96" y="190" width="160" height="10" rx="5" fill="#6f89d9" opacity="0.25"/>

  <rect x="96" y="242" width="286" height="70" rx="12" fill="#1a2442" stroke="#2f4174"/>
  <rect x="96" y="330" width="286" height="70" rx="12" fill="#1a2442" stroke="#2f4174"/>
  <rect x="96" y="418" width="286" height="70" rx="12" fill="#1a2442" stroke="#2f4174"/>

  <rect x="472" y="150" width="706" height="54" rx="12" fill="#172240" stroke="#31509b"/>
  <rect x="500" y="170" width="250" height="14" rx="7" fill="#8fb2ff" opacity="0.35"/>

  <rect x="472" y="230" width="330" height="340" rx="14" fill="#182541" stroke="#2f4a8d"/>
  <rect x="824" y="230" width="354" height="340" rx="14" fill="#182541" stroke="#2f4a8d"/>

  <circle cx="640" cy="360" r="110" fill="#1f3160"/>
  <circle cx="640" cy="360" r="86" stroke="#4175ff" stroke-width="8"/>
  <path d="M594 330h56c12 0 22 10 22 22s-10 22-22 22h-56v-44zM594 374h20l36 36" stroke="#edf0ff" stroke-width="10" stroke-linecap="round" stroke-linejoin="round"/>

  <text x="640" y="640" text-anchor="middle" fill="#8fb2ff" font-size="36" font-family="Segoe UI, Arial, sans-serif" font-weight="700">Themes Preview Placeholder</text>
</svg>
