<svg xmlns="http://www.w3.org/2000/svg" width="1200" height="760" viewBox="0 0 1200 760" fill="none">
  <defs>
    <linearGradient id="bg" x1="0" y1="0" x2="1200" y2="760" gradientUnits="userSpaceOnUse">
      <stop stop-color="#171B2A"/>
      <stop offset="1" stop-color="#111422"/>
    </linearGradient>
    <linearGradient id="tab" x1="0" y1="0" x2="700" y2="0" gradientUnits="userSpaceOnUse">
      <stop stop-color="#2A3555" stop-opacity="0.75"/>
      <stop offset="1" stop-color="#1C243B" stop-opacity="0.4"/>
    </linearGradient>
  </defs>
  <rect width="1200" height="760" rx="20" fill="url(#bg)"/>
  <rect x="32" y="40" width="740" height="56" rx="28" fill="url(#tab)" stroke="#2D395B"/>
  <rect x="50" y="50" width="158" height="36" rx="18" fill="#22385F"/>
  <rect x="54" y="82" width="142" height="2" rx="1" fill="#6EA2FF"/>
  <rect x="34" y="124" width="1130" height="186" rx="14" fill="#1B2235" stroke="#2A3350"/>
  <rect x="34" y="332" width="1130" height="146" rx="14" fill="#1B2235" stroke="#2A3350"/>
  <rect x="34" y="500" width="1130" height="224" rx="18" fill="#1A2133" stroke="#2A3350"/>
  <rect x="58" y="572" width="338" height="78" rx="14" fill="#252A3A"/>
  <rect x="420" y="572" width="338" height="78" rx="14" fill="#252A3A"/>
  <rect x="782" y="572" width="338" height="78" rx="14" fill="#252A3A"/>
  <circle cx="86" cy="611" r="16" fill="#EFEFF1"/>
  <path d="M88 604a7 7 0 0 0-7 7v0h7v-7Z" fill="#8A8C90"/>
  <rect x="114" y="600" width="192" height="20" rx="10" fill="#D7DBE6" fill-opacity="0.25"/>
  <rect x="476" y="600" width="236" height="20" rx="10" fill="#D7DBE6" fill-opacity="0.25"/>
  <rect x="840" y="600" width="216" height="20" rx="10" fill="#D7DBE6" fill-opacity="0.25"/>
</svg>
